<?xml version="1.0" encoding="utf-8"?><svg viewBox="0 0 40 48" xmlns="http://www.w3.org/2000/svg" xmlns:xlink="http://www.w3.org/1999/xlink"><style>:root>svg{display:none}:root>svg:target{display:block}</style><svg viewBox="0 0 24 24" id="ic_account" xmlns="http://www.w3.org/2000/svg"><path d="M0 0h24v24H0V0z" fill="none"/><path d="M12 2C6.48 2 2 6.48 2 12s4.48 10 10 10 10-4.48 10-10S17.52 2 12 2zm0 3c1.66 0 3 1.34 3 3s-1.34 3-3 3-3-1.34-3-3 1.34-3 3-3zm0 14.2a7.2 7.2 0 01-6-3.22c.03-1.99 4-3.08 6-3.08 1.99 0 5.97 1.09 6 3.08a7.2 7.2 0 01-6 3.22z"/></svg><svg viewBox="0 0 24 24" id="ic_account-add" xmlns="http://www.w3.org/2000/svg"><path d="M0 0h24v24H0V0z" fill="none"/><path d="M15 12c2.21 0 4-1.79 4-4s-1.79-4-4-4-4 1.79-4 4 1.79 4 4 4zm0-6c1.1 0 2 .9 2 2s-.9 2-2 2-2-.9-2-2 .9-2 2-2zm0 8c-2.67 0-8 1.34-8 4v2h16v-2c0-2.66-5.33-4-8-4zm-6 4c.22-.72 3.31-2 6-2 2.7 0 5.8 1.29 6 2H9zm-3-3v-3h3v-2H6V7H4v3H1v2h3v3z"/></svg><svg viewBox="0 0 24 24" id="ic_account-addalt" xmlns="http://www.w3.org/2000/svg"><path fill="none" d="M0 0h24v24H0z"/><path d="M20 9V6h-2v3h-3v2h3v3h2v-3h3V9h-3zM9 12c2.21 0 4-1.79 4-4s-1.79-4-4-4-4 1.79-4 4 1.79 4 4 4zm0-6c1.1 0 2 .9 2 2s-.9 2-2 2-2-.9-2-2 .9-2 2-2zm6.39 8.56C13.71 13.7 11.53 13 9 13s-4.71.7-6.39 1.56A2.97 2.97 0 001 17.22V20h16v-2.78c0-1.12-.61-2.15-1.61-2.66zM15 18H3v-.78c0-.38.2-.72.52-.88C4.71 15.73 6.63 15 9 15c2.37 0 4.29.73 5.48 1.34.32.16.52.5.52.88V18z"/></svg><svg viewBox="0 0 24 24" id="ic_apps" xmlns="http://www.w3.org/2000/svg"><path d="M6 20q-.825 0-1.412-.587Q4 18.825 4 18q0-.825.588-1.413Q5.175 16 6 16t1.412.587Q8 17.175 8 18q0 .825-.588 1.413Q6.825 20 6 20zm6 0q-.825 0-1.412-.587Q10 18.825 10 18q0-.825.588-1.413Q11.175 16 12 16t1.413.587Q14 17.175 14 18q0 .825-.587 1.413Q12.825 20 12 20zm6 0q-.825 0-1.413-.587Q16 18.825 16 18q0-.825.587-1.413Q17.175 16 18 16q.825 0 1.413.587Q20 17.175 20 18q0 .825-.587 1.413Q18.825 20 18 20zM6 14q-.825 0-1.412-.588Q4 12.825 4 12t.588-1.413Q5.175 10 6 10t1.412.587Q8 11.175 8 12q0 .825-.588 1.412Q6.825 14 6 14zm6 0q-.825 0-1.412-.588Q10 12.825 10 12t.588-1.413Q11.175 10 12 10t1.413.587Q14 11.175 14 12q0 .825-.587 1.412Q12.825 14 12 14zm6 0q-.825 0-1.413-.588Q16 12.825 16 12t.587-1.413Q17.175 10 18 10q.825 0 1.413.587Q20 11.175 20 12q0 .825-.587 1.412Q18.825 14 18 14zM6 8q-.825 0-1.412-.588Q4 6.825 4 6t.588-1.412Q5.175 4 6 4t1.412.588Q8 5.175 8 6t-.588 1.412Q6.825 8 6 8zm6 0q-.825 0-1.412-.588Q10 6.825 10 6t.588-1.412Q11.175 4 12 4t1.413.588Q14 5.175 14 6t-.587 1.412Q12.825 8 12 8zm6 0q-.825 0-1.413-.588Q16 6.825 16 6t.587-1.412Q17.175 4 18 4q.825 0 1.413.588Q20 5.175 20 6t-.587 1.412Q18.825 8 18 8z"/></svg><svg viewBox="0 0 24 24" id="ic_arr-right" xmlns="http://www.w3.org/2000/svg"><path d="M0 0h24v24H0V0z" fill="none"/><path d="M5 13h11.17l-4.88 4.88c-.39.39-.39 1.03 0 1.42.39.39 1.02.39 1.41 0l6.59-6.59a.996.996 0 000-1.41l-6.58-6.6a.996.996 0 10-1.41 1.41L16.17 11H5c-.55 0-1 .45-1 1s.45 1 1 1z"/></svg><svg viewBox="0 0 24 24" id="ic_close" xmlns="http://www.w3.org/2000/svg"><path d="M0 0h24v24H0V0z" fill="none"/><path d="M18.3 5.71a.996.996 0 00-1.41 0L12 10.59 7.11 5.7A.996.996 0 105.7 7.11L10.59 12 5.7 16.89a.996.996 0 101.41 1.41L12 13.41l4.89 4.89a.996.996 0 101.41-1.41L13.41 12l4.89-4.89c.38-.38.38-1.02 0-1.4z"/></svg><svg viewBox="0 0 24 24" id="ic_dark" xmlns="http://www.w3.org/2000/svg"><path fill="none" d="M0 0h24v24H0z"/><path d="M11.01 3.05C6.51 3.54 3 7.36 3 12a9 9 0 009 9c4.63 0 8.45-3.5 8.95-8 .09-.79-.78-1.42-1.54-.95A5.403 5.403 0 0111.1 7.5c0-1.06.31-2.06.84-2.89.45-.67-.04-1.63-.93-1.56z"/></svg><svg fill="#FFF" viewBox="0 0 24 24" id="ic_done" xmlns="http://www.w3.org/2000/svg"><path d="M0 0h24v24H0V0z" fill="none"/><path d="M9 16.2L4.8 12l-1.4 1.4L9 19 21 7l-1.4-1.4L9 16.2z"/></svg><svg fill="#FFF" viewBox="0 0 24 24" id="ic_download" xmlns="http://www.w3.org/2000/svg"><path fill="none" d="M0 0h24v24H0z"/><path d="M18 15v3H6v-3H4v3c0 1.1.9 2 2 2h12c1.1 0 2-.9 2-2v-3h-2zm-1-4l-1.41-1.41L13 12.17V4h-2v8.17L8.41 9.59 7 11l5 5 5-5z"/></svg><svg viewBox="0 0 24 24" id="ic_dropdown" xmlns="http://www.w3.org/2000/svg"><path d="M24 24H0V0h24v24z" fill="none" opacity=".87"/><path d="M15.88 9.29L12 13.17 8.12 9.29a.996.996 0 10-1.41 1.41l4.59 4.59c.39.39 1.02.39 1.41 0l4.59-4.59a.996.996 0 000-1.41c-.39-.38-1.03-.39-1.42 0z"/></svg><svg viewBox="0 0 24 24" id="ic_expand" xmlns="http://www.w3.org/2000/svg"><path d="M24 24H0V0h24v24z" fill="none" opacity=".87"/><path d="M16.59 8.59L12 13.17 7.41 8.59 6 10l6 6 6-6-1.41-1.41z"/></svg><svg viewBox="0 0 24 24" id="ic_feedback" xmlns="http://www.w3.org/2000/svg"><path d="M0 0h24v24H0V0z" fill="none"/><path d="M20 2H4c-1.1 0-1.99.9-1.99 2L2 22l4-4h14c1.1 0 2-.9 2-2V4c0-1.1-.9-2-2-2zm0 14H5.17l-.59.59-.58.58V4h16v12zm-9-4h2v2h-2zm0-6h2v4h-2z"/></svg><svg viewBox="0 0 24 24" id="ic_go" xmlns="http://www.w3.org/2000/svg"><path d="M0 0h24v24H0V0z" fill="none"/><path d="M9.29 6.71a.996.996 0 000 1.41L13.17 12l-3.88 3.88a.996.996 0 101.41 1.41l4.59-4.59a.996.996 0 000-1.41L10.7 6.7c-.38-.38-1.02-.38-1.41.01z"/></svg><svg viewBox="0 0 24 24" id="ic_key" xmlns="http://www.w3.org/2000/svg"><path d="M0 0h24v24H0V0z" fill="none"/><path d="M22 19h-6v-4h-2.68c-1.14 2.42-3.6 4-6.32 4-3.86 0-7-3.14-7-7s3.14-7 7-7c2.72 0 5.17 1.58 6.32 4H24v6h-2v4zm-4-2h2v-4h2v-2H11.94l-.23-.67C11.01 8.34 9.11 7 7 7c-2.76 0-5 2.24-5 5s2.24 5 5 5c2.11 0 4.01-1.34 4.71-3.33l.23-.67H18v4zM7 15c-1.65 0-3-1.35-3-3s1.35-3 3-3 3 1.35 3 3-1.35 3-3 3zm0-4c-.55 0-1 .45-1 1s.45 1 1 1 1-.45 1-1-.45-1-1-1z"/></svg><svg fill="#FFF" viewBox="0 0 24 24" id="ic_launch" xmlns="http://www.w3.org/2000/svg"><path d="M0 0h24v24H0V0z" fill="none"/><path d="M19 4H5a2 2 0 00-2 2v12c0 1.1.9 2 2 2h3c.55 0 1-.45 1-1s-.45-1-1-1H5V8h14v10h-3c-.55 0-1 .45-1 1s.45 1 1 1h3c1.1 0 2-.9 2-2V6a2 2 0 00-2-2zm-7.35 6.35l-2.79 2.79c-.32.32-.1.86.35.86H11v5c0 .55.45 1 1 1s1-.45 1-1v-5h1.79c.45 0 .67-.54.35-.85l-2.79-2.79c-.19-.2-.51-.2-.7-.01z"/></svg><svg viewBox="0 0 24 24" id="ic_location" xmlns="http://www.w3.org/2000/svg"><path d="M12 19q-3.525-2.6-5.263-5.05Q5 11.5 5 9.15q0-1.775.638-3.113Q6.275 4.7 7.275 3.8q1-.9 2.25-1.35Q10.775 2 12 2t2.475.45q1.25.45 2.25 1.35 1 .9 1.638 2.237Q19 7.375 19 9.15q0 2.35-1.738 4.8Q15.525 16.4 12 19zm0-8q.825 0 1.413-.588Q14 9.825 14 9t-.587-1.413Q12.825 7 12 7q-.825 0-1.412.587Q10 8.175 10 9q0 .825.588 1.412Q11.175 11 12 11zM5 22v-2h14v2z"/></svg><svg viewBox="0 0 24 24" id="ic_login" xmlns="http://www.w3.org/2000/svg"><path fill="none" d="M0 0h24v24H0z"/><path d="M11 7L9.6 8.4l2.6 2.6H2v2h10.2l-2.6 2.6L11 17l5-5-5-5zm9 12h-8v2h8c1.1 0 2-.9 2-2V5c0-1.1-.9-2-2-2h-8v2h8v14z"/></svg><svg viewBox="0 0 24 24" id="ic_logout" xmlns="http://www.w3.org/2000/svg"><path d="M0 0h24v24H0V0z" fill="none"/><path d="M5 5h6c.55 0 1-.45 1-1s-.45-1-1-1H5c-1.1 0-2 .9-2 2v14c0 1.1.9 2 2 2h6c.55 0 1-.45 1-1s-.45-1-1-1H5V5z"/><path d="M20.65 11.65l-2.79-2.79a.501.501 0 00-.86.35V11h-7c-.55 0-1 .45-1 1s.45 1 1 1h7v1.79c0 .45.54.67.85.35l2.79-2.79c.2-.19.2-.51.01-.7z"/></svg><svg viewBox="0 0 24 24" id="ic_menu" xmlns="http://www.w3.org/2000/svg"><path d="M0 0h24v24H0V0z" fill="none"/><path d="M4 18h16c.55 0 1-.45 1-1s-.45-1-1-1H4c-.55 0-1 .45-1 1s.45 1 1 1zm0-5h16c.55 0 1-.45 1-1s-.45-1-1-1H4c-.55 0-1 .45-1 1s.45 1 1 1zM3 7c0 .55.45 1 1 1h16c.55 0 1-.45 1-1s-.45-1-1-1H4c-.55 0-1 .45-1 1z"/></svg><svg viewBox="0 0 24 24" id="ic_next" xmlns="http://www.w3.org/2000/svg"><path d="M0 0h24v24H0V0z" fill="none"/><path d="M5 13h11.17l-4.88 4.88c-.39.39-.39 1.03 0 1.42.39.39 1.02.39 1.41 0l6.59-6.59a.996.996 0 000-1.41l-6.58-6.6a.996.996 0 10-1.41 1.41L16.17 11H5c-.55 0-1 .45-1 1s.45 1 1 1z"/></svg><svg fill="#FFF" viewBox="0 0 24 24" id="ic_next-wh" xmlns="http://www.w3.org/2000/svg"><path d="M0 0h24v24H0V0z" fill="none"/><path d="M5 13h11.17l-4.88 4.88c-.39.39-.39 1.03 0 1.42.39.39 1.02.39 1.41 0l6.59-6.59a.996.996 0 000-1.41l-6.58-6.6a.996.996 0 10-1.41 1.41L16.17 11H5c-.55 0-1 .45-1 1s.45 1 1 1z"/></svg><svg viewBox="0 0 24 24" id="ic_person" xmlns="http://www.w3.org/2000/svg"><path d="M0 0h24v24H0V0z" fill="none"/><path d="M19 5v14H5V5h14m0-2H5a2 2 0 00-2 2v14a2 2 0 002 2h14c1.1 0 2-.9 2-2V5c0-1.1-.9-2-2-2zm-7 9c-1.65 0-3-1.35-3-3s1.35-3 3-3 3 1.35 3 3-1.35 3-3 3zm0-4c-.55 0-1 .45-1 1s.45 1 1 1 1-.45 1-1-.45-1-1-1zm6 10H6v-1.53c0-2.5 3.97-3.58 6-3.58s6 1.08 6 3.58V18zm-9.69-2h7.38c-.69-.56-2.38-1.12-3.69-1.12s-3.01.56-3.69 1.12z"/></svg><svg viewBox="0 0 24 24" id="ic_phone" xmlns="http://www.w3.org/2000/svg"><path d="M0 0h24v24H0V0z" fill="none"/><path d="M6.54 5c.06.89.21 1.76.45 2.59l-1.2 1.2c-.41-1.2-.67-2.47-.76-3.79h1.51m9.86 12.02c.85.24 1.72.39 2.6.45v1.49c-1.32-.09-2.59-.35-3.8-.75l1.2-1.19M7.5 3H4c-.55 0-1 .45-1 1 0 9.39 7.61 17 17 17 .55 0 1-.45 1-1v-3.49c0-.55-.45-1-1-1-1.24 0-2.45-.2-3.57-.57a.84.84 0 00-.31-.05c-.26 0-.51.1-.71.29l-2.2 2.2a15.149 15.149 0 01-6.59-6.59l2.2-2.2c.28-.28.36-.67.25-1.02A11.36 11.36 0 018.5 4c0-.55-.45-1-1-1z"/></svg><svg viewBox="0 0 24 24" id="ic_search" xmlns="http://www.w3.org/2000/svg"><path d="M0 0h24v24H0V0z" fill="none"/><path d="M15.5 14h-.79l-.28-.27A6.471 6.471 0 0016 9.5 6.5 6.5 0 109.5 16c1.61 0 3.09-.59 4.23-1.57l.27.28v.79l5 4.99L20.49 19l-4.99-5zm-6 0C7.01 14 5 11.99 5 9.5S7.01 5 9.5 5 14 7.01 14 9.5 11.99 14 9.5 14z"/></svg><svg fill="#FFF" viewBox="0 0 24 24" id="ic_send" xmlns="http://www.w3.org/2000/svg"><path d="M0 0h24v24H0V0z" fill="none"/><path d="M3.4 20.4l17.45-7.48a1 1 0 000-1.84L3.4 3.6a.993.993 0 00-1.39.91L2 9.12c0 .5.37.93.87.99L17 12 2.87 13.88c-.5.07-.87.5-.87 1l.01 4.61c0 .71.73 1.2 1.39.91z"/></svg><svg fill="#FFF" viewBox="0 0 24 24" id="ic_start" xmlns="http://www.w3.org/2000/svg"><path d="M8 6.82v10.36c0 .79.87 1.27 1.54.84l8.14-5.18a1 1 0 000-1.69L9.54 5.98A.998.998 0 008 6.82z"/></svg><svg viewBox="0 0 24 24" id="ic_up" xmlns="http://www.w3.org/2000/svg"><path d="M0 0h24v24H0V0z" fill="none"/><path d="M4 12l1.41 1.41L11 7.83V20h2V7.83l5.58 5.59L20 12l-8-8-8 8z"/></svg><svg fill="#FFF" viewBox="0 0 24 24" id="ic_upload" xmlns="http://www.w3.org/2000/svg"><path fill="none" d="M0 0h24v24H0z"/><path d="M7.4 10h1.59v5c0 .55.45 1 1 1h4c.55 0 1-.45 1-1v-5h1.59c.89 0 1.34-1.08.71-1.71L12.7 3.7a.996.996 0 00-1.41 0L6.7 8.29c-.63.63-.19 1.71.7 1.71zM5 19c0 .55.45 1 1 1h12c.55 0 1-.45 1-1s-.45-1-1-1H6c-.55 0-1 .45-1 1z"/></svg><svg viewBox="0 0 40 40" id="ic_web" xmlns="http://www.w3.org/2000/svg"><path d="M20 36.667q-3.458 0-6.5-1.313-3.042-1.312-5.292-3.562T4.646 26.5Q3.333 23.458 3.333 20t1.313-6.5q1.312-3.042 3.562-5.292T13.5 4.646q3.042-1.313 6.5-1.313t6.5 1.313q3.042 1.312 5.292 3.562t3.562 5.292q1.313 3.042 1.313 6.5t-1.313 6.5q-1.312 3.042-3.562 5.292T26.5 35.354q-3.042 1.313-6.5 1.313zm-1.75-2.834v-3.375q-1.417 0-2.417-1.041-1-1.042-1-2.459v-1.791l-8.375-8.375q-.166.833-.25 1.625-.083.791-.083 1.583 0 5.292 3.437 9.25Q13 33.208 18.25 33.833zm12-4.416q1.792-1.959 2.708-4.375.917-2.417.917-5.042 0-4.292-2.354-7.833-2.354-3.542-6.313-5.125v.708q0 1.417-1 2.479-1 1.063-2.416 1.063H18.25v3.5q0 .708-.542 1.187-.541.479-1.25.479h-3.416V20h10.5q.708 0 1.187.521.479.521.479 1.229v5.208h1.75q1.167 0 2.063.688.896.687 1.229 1.771z"/></svg><svg fill="none" viewBox="0 0 38 48" id="promicom_logo" xmlns="http://www.w3.org/2000/svg"><path opacity=".75" d="M20.435 0H0v48h20.435V0z" fill="#0582AB"/><path opacity=".75" d="M20.435 0H0v34.535h20.435a17.268 17.268 0 000-34.535z" fill="#0582AB"/></svg></svg>